<svg width="161" height="32" viewBox="0 0 161 32" fill="none" xmlns="http://www.w3.org/2000/svg">
<path d="M5.472 21.16L5.256 16.672L13.296 8.2H17.616L10.368 16L8.208 18.304L5.472 21.16ZM1.992 25V8.2H5.856V25H1.992ZM13.488 25L7.512 17.68L10.056 14.92L18.024 25H13.488ZM19.4936 25V12.088H23.2376V25H19.4936ZM21.3656 10.288C20.6776 10.288 20.1176 10.088 19.6856 9.688C19.2536 9.288 19.0376 8.792 19.0376 8.2C19.0376 7.608 19.2536 7.112 19.6856 6.712C20.1176 6.312 20.6776 6.112 21.3656 6.112C22.0536 6.112 22.6136 6.304 23.0456 6.688C23.4776 7.056 23.6936 7.536 23.6936 8.128C23.6936 8.752 23.4776 9.272 23.0456 9.688C22.6296 10.088 22.0696 10.288 21.3656 10.288ZM31.9924 25.192C30.4724 25.192 29.2884 24.808 28.4404 24.04C27.5924 23.256 27.1684 22.096 27.1684 20.56V9.232H30.9124V20.512C30.9124 21.056 31.0564 21.48 31.3444 21.784C31.6324 22.072 32.0244 22.216 32.5204 22.216C33.1124 22.216 33.6164 22.056 34.0324 21.736L35.0404 24.376C34.6564 24.648 34.1924 24.856 33.6484 25C33.1204 25.128 32.5684 25.192 31.9924 25.192ZM25.1764 14.968V12.088H34.1284V14.968H25.1764ZM42.9836 25.192C41.5916 25.192 40.3516 24.912 39.2636 24.352C38.1756 23.776 37.3196 22.984 36.6956 21.976C36.0876 20.968 35.7836 19.824 35.7836 18.544C35.7836 17.248 36.0876 16.104 36.6956 15.112C37.3196 14.104 38.1756 13.32 39.2636 12.76C40.3516 12.184 41.5916 11.896 42.9836 11.896C44.3436 11.896 45.5276 12.184 46.5356 12.76C47.5436 13.32 48.2876 14.128 48.7676 15.184L45.8636 16.744C45.5276 16.136 45.1036 15.688 44.5916 15.4C44.0956 15.112 43.5516 14.968 42.9596 14.968C42.3196 14.968 41.7436 15.112 41.2316 15.4C40.7196 15.688 40.3116 16.096 40.0076 16.624C39.7196 17.152 39.5756 17.792 39.5756 18.544C39.5756 19.296 39.7196 19.936 40.0076 20.464C40.3116 20.992 40.7196 21.4 41.2316 21.688C41.7436 21.976 42.3196 22.12 42.9596 22.12C43.5516 22.12 44.0956 21.984 44.5916 21.712C45.1036 21.424 45.5276 20.968 45.8636 20.344L48.7676 21.928C48.2876 22.968 47.5436 23.776 46.5356 24.352C45.5276 24.912 44.3436 25.192 42.9836 25.192ZM50.853 25V7.192H54.597V15.664L53.757 14.584C54.221 13.72 54.885 13.056 55.749 12.592C56.613 12.128 57.597 11.896 58.701 11.896C59.725 11.896 60.637 12.104 61.437 12.52C62.253 12.92 62.893 13.544 63.357 14.392C63.821 15.224 64.053 16.296 64.053 17.608V25H60.309V18.184C60.309 17.144 60.077 16.376 59.613 15.88C59.165 15.384 58.525 15.136 57.693 15.136C57.101 15.136 56.565 15.264 56.085 15.52C55.621 15.76 55.253 16.136 54.981 16.648C54.725 17.16 54.597 17.816 54.597 18.616V25H50.853ZM73.9485 25.192C72.4765 25.192 71.1805 24.904 70.0605 24.328C68.9565 23.752 68.1005 22.968 67.4925 21.976C66.8845 20.968 66.5805 19.824 66.5805 18.544C66.5805 17.248 66.8765 16.104 67.4685 15.112C68.0765 14.104 68.9005 13.32 69.9405 12.76C70.9805 12.184 72.1565 11.896 73.4685 11.896C74.7325 11.896 75.8685 12.168 76.8765 12.712C77.9005 13.24 78.7085 14.008 79.3005 15.016C79.8925 16.008 80.1885 17.2 80.1885 18.592C80.1885 18.736 80.1805 18.904 80.1645 19.096C80.1485 19.272 80.1325 19.44 80.1165 19.6H69.6285V17.416H78.1485L76.7085 18.064C76.7085 17.392 76.5725 16.808 76.3005 16.312C76.0285 15.816 75.6525 15.432 75.1725 15.16C74.6925 14.872 74.1325 14.728 73.4925 14.728C72.8525 14.728 72.2845 14.872 71.7885 15.16C71.3085 15.432 70.9325 15.824 70.6605 16.336C70.3885 16.832 70.2525 17.424 70.2525 18.112V18.688C70.2525 19.392 70.4045 20.016 70.7085 20.56C71.0285 21.088 71.4685 21.496 72.0285 21.784C72.6045 22.056 73.2765 22.192 74.0445 22.192C74.7325 22.192 75.3325 22.088 75.8445 21.88C76.3725 21.672 76.8525 21.36 77.2845 20.944L79.2765 23.104C78.6845 23.776 77.9405 24.296 77.0445 24.664C76.1485 25.016 75.1165 25.192 73.9485 25.192ZM82.6811 25V12.088H86.2571V15.664L85.5851 14.584C86.0491 13.72 86.7131 13.056 87.5771 12.592C88.4411 12.128 89.4251 11.896 90.5291 11.896C91.5531 11.896 92.4651 12.104 93.2651 12.52C94.0811 12.92 94.7211 13.544 95.1851 14.392C95.6491 15.224 95.8811 16.296 95.8811 17.608V25H92.1371V18.184C92.1371 17.144 91.9051 16.376 91.4411 15.88C90.9931 15.384 90.3531 15.136 89.5211 15.136C88.9291 15.136 88.3931 15.264 87.9131 15.52C87.4491 15.76 87.0811 16.136 86.8091 16.648C86.5531 17.16 86.4251 17.816 86.4251 18.616V25H82.6811ZM103.571 25L98.0749 8.2H102.107L106.883 23.08H104.867L109.859 8.2H113.459L118.259 23.08H116.315L121.211 8.2H124.931L119.435 25H115.259L111.011 11.944H112.115L107.747 25H103.571ZM127.048 25V12.088H130.792V25H127.048ZM128.92 10.288C128.232 10.288 127.672 10.088 127.24 9.688C126.808 9.288 126.592 8.792 126.592 8.2C126.592 7.608 126.808 7.112 127.24 6.712C127.672 6.312 128.232 6.112 128.92 6.112C129.608 6.112 130.168 6.304 130.6 6.688C131.032 7.056 131.248 7.536 131.248 8.128C131.248 8.752 131.032 9.272 130.6 9.688C130.184 10.088 129.624 10.288 128.92 10.288ZM138.611 25.192C137.507 25.192 136.443 25.064 135.419 24.808C134.411 24.536 133.611 24.2 133.019 23.8L134.267 21.112C134.859 21.48 135.555 21.784 136.355 22.024C137.171 22.248 137.971 22.36 138.755 22.36C139.619 22.36 140.227 22.256 140.579 22.048C140.947 21.84 141.131 21.552 141.131 21.184C141.131 20.88 140.987 20.656 140.699 20.512C140.427 20.352 140.059 20.232 139.595 20.152C139.131 20.072 138.619 19.992 138.059 19.912C137.515 19.832 136.963 19.728 136.403 19.6C135.843 19.456 135.331 19.248 134.867 18.976C134.403 18.704 134.027 18.336 133.739 17.872C133.467 17.408 133.331 16.808 133.331 16.072C133.331 15.256 133.563 14.536 134.027 13.912C134.507 13.288 135.195 12.8 136.091 12.448C136.987 12.08 138.059 11.896 139.307 11.896C140.187 11.896 141.083 11.992 141.995 12.184C142.907 12.376 143.667 12.656 144.275 13.024L143.027 15.688C142.403 15.32 141.771 15.072 141.131 14.944C140.507 14.8 139.899 14.728 139.307 14.728C138.475 14.728 137.867 14.84 137.483 15.064C137.099 15.288 136.907 15.576 136.907 15.928C136.907 16.248 137.043 16.488 137.315 16.648C137.603 16.808 137.979 16.936 138.443 17.032C138.907 17.128 139.411 17.216 139.955 17.296C140.515 17.36 141.075 17.464 141.635 17.608C142.195 17.752 142.699 17.96 143.147 18.232C143.611 18.488 143.987 18.848 144.275 19.312C144.563 19.76 144.707 20.352 144.707 21.088C144.707 21.888 144.467 22.6 143.987 23.224C143.507 23.832 142.811 24.312 141.899 24.664C141.003 25.016 139.907 25.192 138.611 25.192ZM153.425 25.192C151.953 25.192 150.657 24.904 149.537 24.328C148.433 23.752 147.577 22.968 146.969 21.976C146.361 20.968 146.057 19.824 146.057 18.544C146.057 17.248 146.353 16.104 146.945 15.112C147.553 14.104 148.377 13.32 149.417 12.76C150.457 12.184 151.633 11.896 152.945 11.896C154.209 11.896 155.345 12.168 156.353 12.712C157.377 13.24 158.185 14.008 158.777 15.016C159.369 16.008 159.665 17.2 159.665 18.592C159.665 18.736 159.657 18.904 159.641 19.096C159.625 19.272 159.609 19.44 159.593 19.6H149.105V17.416H157.625L156.185 18.064C156.185 17.392 156.049 16.808 155.777 16.312C155.505 15.816 155.129 15.432 154.649 15.16C154.169 14.872 153.609 14.728 152.969 14.728C152.329 14.728 151.761 14.872 151.265 15.16C150.785 15.432 150.409 15.824 150.137 16.336C149.865 16.832 149.729 17.424 149.729 18.112V18.688C149.729 19.392 149.881 20.016 150.185 20.56C150.505 21.088 150.945 21.496 151.505 21.784C152.081 22.056 152.753 22.192 153.521 22.192C154.209 22.192 154.809 22.088 155.321 21.88C155.849 21.672 156.329 21.36 156.761 20.944L158.753 23.104C158.161 23.776 157.417 24.296 156.521 24.664C155.625 25.016 154.593 25.192 153.425 25.192Z" fill="#006E2F"/>
</svg>
